<mxfile host="Electron" agent="Mozilla/5.0 (Windows NT 10.0; Win64; x64) AppleWebKit/537.36 (KHTML, like Gecko) draw.io/24.7.5 Chrome/126.0.6478.183 Electron/31.3.0 Safari/537.36" version="24.7.5">
  <diagram id="f106602c-feb2-e66a-4537-3a34d633f6aa" name="Page-1">
    <mxGraphModel dx="1172" dy="576" grid="0" gridSize="10" guides="1" tooltips="1" connect="1" arrows="1" fold="1" page="1" pageScale="1" pageWidth="1169" pageHeight="827" background="none" math="0" shadow="0">
      <root>
        <mxCell id="0" />
        <mxCell id="1" parent="0" />
        <mxCell id="Lif8JBEafslfNm7ranTe-1" value="&lt;b&gt;Google &lt;/b&gt;Cloud Platform&lt;div&gt;&lt;b&gt;&lt;i&gt;fortigcp-project&lt;/i&gt;&lt;/b&gt;&lt;/div&gt;" style="fillColor=#F6F6F6;strokeColor=default;shadow=0;gradientColor=none;fontSize=14;align=left;spacing=10;fontColor=#717171;9E9E9E;verticalAlign=top;spacingTop=-4;fontStyle=0;spacingLeft=40;html=1;labelBackgroundColor=none;movable=1;resizable=1;rotatable=1;deletable=1;editable=1;locked=0;connectable=1;" parent="1" vertex="1">
          <mxGeometry x="220.5" y="210" width="610" height="440" as="geometry" />
        </mxCell>
        <mxCell id="Lif8JBEafslfNm7ranTe-2" value="" style="shape=mxgraph.gcp2.google_cloud_platform;fillColor=#F6F6F6;strokeColor=none;shadow=0;gradientColor=none;" parent="Lif8JBEafslfNm7ranTe-1" vertex="1">
          <mxGeometry width="23" height="20" relative="1" as="geometry">
            <mxPoint y="13" as="offset" />
          </mxGeometry>
        </mxCell>
        <mxCell id="8yeXL6jUUZy5x9-lsI-Y-19" value="" style="edgeStyle=orthogonalEdgeStyle;shape=connector;rounded=0;orthogonalLoop=1;jettySize=auto;html=1;shadow=1;strokeColor=#A50040;strokeWidth=2;align=center;verticalAlign=middle;fontFamily=Helvetica;fontSize=11;fontColor=default;labelBackgroundColor=default;endArrow=classic;flowAnimation=0;fillColor=#d80073;dashed=1;" parent="Lif8JBEafslfNm7ranTe-1" source="8yeXL6jUUZy5x9-lsI-Y-9" target="8yeXL6jUUZy5x9-lsI-Y-21" edge="1">
          <mxGeometry relative="1" as="geometry">
            <mxPoint x="84.60735057471264" y="238" as="targetPoint" />
          </mxGeometry>
        </mxCell>
        <mxCell id="8yeXL6jUUZy5x9-lsI-Y-9" value="&lt;b&gt;&lt;i&gt;ext-ip-app01&lt;/i&gt;&lt;/b&gt;" style="editableCssRules=.*;html=1;shape=image;verticalLabelPosition=top;labelBackgroundColor=none;verticalAlign=bottom;aspect=fixed;imageAspect=0;image=data:image/svg+xml,PHN2ZyB4bWxucz0iaHR0cDovL3d3dy53My5vcmcvMjAwMC9zdmciIHhtbG5zOnY9Imh0dHBzOi8vdmVjdGEuaW8vbmFubyIgd2lkdGg9IjE5Ljk5OTk5ODA5MjY1MTM2NyIgaGVpZ2h0PSIyMCIgdmlld0JveD0iMCAtMi44NDIxNzA1NjE4NzU1NzQ1ZS0xNSAxOS45OTk5OTgwOTI2NTEzNjcgMjAiPiYjeGE7CTxzdHlsZSB0eXBlPSJ0ZXh0L2NzcyI+JiN4YTsJLnN0MHtmaWxsOiM0Mjg1ZjQ7fSYjeGE7CS5zdDF7ZmlsbDojNjY5ZGY2O30mI3hhOwk8L3N0eWxlPiYjeGE7CTxwYXRoIGNsYXNzPSJzdDEiIGQ9Ik0xNS40OSAxMC40djYuN2EuNC40IDAgMCAxLS40LjRIMi45YS40LjQgMCAwIDEtLjQtLjRWNC45YS40LjQgMCAwIDEgLjQtLjRoNi43YS40LjQgMCAwIDAgLjQtLjRWMi40YS40LjQgMCAwIDAtLjQtLjRILjRhLjQuNCAwIDAgMC0uNC40djE3LjJhLjQuNCAwIDAgMCAuNC40aDE3LjJhLjQuNCAwIDAgMCAuNC0uNHYtOS4yYS40LjQgMCAwIDAtLjQtLjRoLTEuNzFhLjQuNCAwIDAgMC0uNC40eiIvPiYjeGE7CTxwYXRoIGNsYXNzPSJzdDAiIGQ9Ik0xMiAuNHY3LjJhLjQuNCAwIDAgMCAuNC40aDcuMmEuNC40IDAgMCAwIC40LS40Vi40YS40LjQgMCAwIDAtLjQtLjRoLTcuMmEuNC40IDAgMCAwLS40LjR6bTUuNiA0LjFoLTEuNzFhLjQuNCAwIDAgMS0uNC0uNFYyLjRhLjQuNCAwIDAgMSAuNC0uNGgxLjcxYS40LjQgMCAwIDEgLjQuNHYxLjdhLjQuNCAwIDAgMS0uNC40eiIvPiYjeGE7PC9zdmc+;shadow=1;labelPosition=center;align=center;" parent="Lif8JBEafslfNm7ranTe-1" vertex="1">
          <mxGeometry x="18.707941483803552" y="215.5" width="22.335858585858585" height="22.335858585858585" as="geometry" />
        </mxCell>
        <mxCell id="8yeXL6jUUZy5x9-lsI-Y-21" value="&lt;div style=&quot;font-size: 12px;&quot;&gt;&lt;span style=&quot;font-weight: normal;&quot;&gt;&lt;font style=&quot;font-size: 12px;&quot;&gt;External LB&lt;/font&gt;&lt;/span&gt;&lt;/div&gt;&lt;i style=&quot;font-size: 12px;&quot;&gt;&lt;font style=&quot;font-size: 12px;&quot;&gt;elb-fgt-01&lt;/font&gt;&lt;/i&gt;" style="sketch=0;html=1;verticalAlign=top;labelPosition=center;verticalLabelPosition=bottom;align=center;spacingTop=-6;fontSize=11;fontStyle=1;fontColor=default;shape=image;aspect=fixed;imageAspect=0;image=data:image/svg+xml,PHN2ZyB4bWxucz0iaHR0cDovL3d3dy53My5vcmcvMjAwMC9zdmciIHhtbG5zOnY9Imh0dHBzOi8vdmVjdGEuaW8vbmFubyIgd2lkdGg9IjIwIiBoZWlnaHQ9IjIwIiB2aWV3Qm94PSIwIDAgMjAgMjAiPiYjeGE7CTxzdHlsZSB0eXBlPSJ0ZXh0L2NzcyI+JiN4YTsJLnN0MHtmaWxsOiM0Mjg1ZjQ7fSYjeGE7CS5zdDF7ZmlsbDojNjY5ZGY2O30mI3hhOwkuc3Qye2ZpbGw6I2FlY2JmYTt9JiN4YTsJPC9zdHlsZT4mI3hhOwk8cGF0aCBjbGFzcz0ic3QxIiBkPSJNMTYgMTBoMnY0aC0yem0tNyAwaDJ2NEg5em0tNyAwaDJ2NEgyeiIvPiYjeGE7CTxwYXRoIGNsYXNzPSJzdDAiIGQ9Ik05IDVoMnY0SDl6Ii8+JiN4YTsJPHBhdGggY2xhc3M9InN0MSIgZD0iTTIgOWgxNnYySDJ6Ii8+JiN4YTsJPHBhdGggY2xhc3M9InN0MiIgZD0iTTQgMGgxMnY1SDR6Ii8+JiN4YTsJPHBhdGggY2xhc3M9InN0MSIgZD0iTTEwIDBoNnY1aC02eiIvPiYjeGE7CTxwYXRoIGNsYXNzPSJzdDIiIGQ9Ik0xNCAxNGg2djZoLTZ6TTAgMTRoNnY2SDB6Ii8+JiN4YTsJPHBhdGggY2xhc3M9InN0MSIgZD0iTTMgMTRoM3Y2SDN6Ii8+JiN4YTsJPHBhdGggY2xhc3M9InN0MiIgZD0iTTcgMTRoNnY2SDd6Ii8+JiN4YTsJPHBhdGggY2xhc3M9InN0MSIgZD0iTTEwIDE0aDN2NmgtM3ptNyAwaDN2NmgtM3oiLz4mI3hhOzwvc3ZnPg==;fontFamily=Helvetica;labelBackgroundColor=none;" parent="Lif8JBEafslfNm7ranTe-1" vertex="1">
          <mxGeometry x="65.71189602925809" y="210.18" width="32.16363636363636" height="32.16363636363636" as="geometry" />
        </mxCell>
        <mxCell id="8yeXL6jUUZy5x9-lsI-Y-46" value="&lt;b&gt;&lt;i&gt;ext-ip-outb-fgt-a&lt;/i&gt;&lt;/b&gt;" style="editableCssRules=.*;html=1;shape=image;verticalLabelPosition=top;labelBackgroundColor=none;verticalAlign=bottom;aspect=fixed;imageAspect=0;image=data:image/svg+xml,PHN2ZyB4bWxucz0iaHR0cDovL3d3dy53My5vcmcvMjAwMC9zdmciIHhtbG5zOnY9Imh0dHBzOi8vdmVjdGEuaW8vbmFubyIgd2lkdGg9IjE5Ljk5OTk5ODA5MjY1MTM2NyIgaGVpZ2h0PSIyMCIgdmlld0JveD0iMCAtMi44NDIxNzA1NjE4NzU1NzQ1ZS0xNSAxOS45OTk5OTgwOTI2NTEzNjcgMjAiPiYjeGE7CTxzdHlsZSB0eXBlPSJ0ZXh0L2NzcyI+JiN4YTsJLnN0MHtmaWxsOiM0Mjg1ZjQ7fSYjeGE7CS5zdDF7ZmlsbDojNjY5ZGY2O30mI3hhOwk8L3N0eWxlPiYjeGE7CTxwYXRoIGNsYXNzPSJzdDEiIGQ9Ik0xNS40OSAxMC40djYuN2EuNC40IDAgMCAxLS40LjRIMi45YS40LjQgMCAwIDEtLjQtLjRWNC45YS40LjQgMCAwIDEgLjQtLjRoNi43YS40LjQgMCAwIDAgLjQtLjRWMi40YS40LjQgMCAwIDAtLjQtLjRILjRhLjQuNCAwIDAgMC0uNC40djE3LjJhLjQuNCAwIDAgMCAuNC40aDE3LjJhLjQuNCAwIDAgMCAuNC0uNHYtOS4yYS40LjQgMCAwIDAtLjQtLjRoLTEuNzFhLjQuNCAwIDAgMC0uNC40eiIvPiYjeGE7CTxwYXRoIGNsYXNzPSJzdDAiIGQ9Ik0xMiAuNHY3LjJhLjQuNCAwIDAgMCAuNC40aDcuMmEuNC40IDAgMCAwIC40LS40Vi40YS40LjQgMCAwIDAtLjQtLjRoLTcuMmEuNC40IDAgMCAwLS40LjR6bTUuNiA0LjFoLTEuNzFhLjQuNCAwIDAgMS0uNC0uNFYyLjRhLjQuNCAwIDAgMSAuNC0uNGgxLjcxYS40LjQgMCAwIDEgLjQuNHYxLjdhLjQuNCAwIDAgMS0uNC40eiIvPiYjeGE7PC9zdmc+;shadow=1;labelPosition=center;align=center;" parent="Lif8JBEafslfNm7ranTe-1" vertex="1">
          <mxGeometry x="19.632183908045974" y="133" width="22.335858585858585" height="22.335858585858585" as="geometry" />
        </mxCell>
        <mxCell id="8yeXL6jUUZy5x9-lsI-Y-48" value="&lt;b&gt;&lt;i&gt;ext-ip-outb-fgt-a&lt;/i&gt;&lt;/b&gt;" style="editableCssRules=.*;html=1;shape=image;verticalLabelPosition=top;labelBackgroundColor=none;verticalAlign=bottom;aspect=fixed;imageAspect=0;image=data:image/svg+xml,PHN2ZyB4bWxucz0iaHR0cDovL3d3dy53My5vcmcvMjAwMC9zdmciIHhtbG5zOnY9Imh0dHBzOi8vdmVjdGEuaW8vbmFubyIgd2lkdGg9IjE5Ljk5OTk5ODA5MjY1MTM2NyIgaGVpZ2h0PSIyMCIgdmlld0JveD0iMCAtMi44NDIxNzA1NjE4NzU1NzQ1ZS0xNSAxOS45OTk5OTgwOTI2NTEzNjcgMjAiPiYjeGE7CTxzdHlsZSB0eXBlPSJ0ZXh0L2NzcyI+JiN4YTsJLnN0MHtmaWxsOiM0Mjg1ZjQ7fSYjeGE7CS5zdDF7ZmlsbDojNjY5ZGY2O30mI3hhOwk8L3N0eWxlPiYjeGE7CTxwYXRoIGNsYXNzPSJzdDEiIGQ9Ik0xNS40OSAxMC40djYuN2EuNC40IDAgMCAxLS40LjRIMi45YS40LjQgMCAwIDEtLjQtLjRWNC45YS40LjQgMCAwIDEgLjQtLjRoNi43YS40LjQgMCAwIDAgLjQtLjRWMi40YS40LjQgMCAwIDAtLjQtLjRILjRhLjQuNCAwIDAgMC0uNC40djE3LjJhLjQuNCAwIDAgMCAuNC40aDE3LjJhLjQuNCAwIDAgMCAuNC0uNHYtOS4yYS40LjQgMCAwIDAtLjQtLjRoLTEuNzFhLjQuNCAwIDAgMC0uNC40eiIvPiYjeGE7CTxwYXRoIGNsYXNzPSJzdDAiIGQ9Ik0xMiAuNHY3LjJhLjQuNCAwIDAgMCAuNC40aDcuMmEuNC40IDAgMCAwIC40LS40Vi40YS40LjQgMCAwIDAtLjQtLjRoLTcuMmEuNC40IDAgMCAwLS40LjR6bTUuNiA0LjFoLTEuNzFhLjQuNCAwIDAgMS0uNC0uNFYyLjRhLjQuNCAwIDAgMSAuNC0uNGgxLjcxYS40LjQgMCAwIDEgLjQuNHYxLjdhLjQuNCAwIDAgMS0uNC40eiIvPiYjeGE7PC9zdmc+;shadow=1;labelPosition=center;align=center;" parent="Lif8JBEafslfNm7ranTe-1" vertex="1">
          <mxGeometry x="19.632183908045974" y="308.25" width="22.335858585858585" height="22.335858585858585" as="geometry" />
        </mxCell>
        <mxCell id="8yeXL6jUUZy5x9-lsI-Y-15" value="" style="edgeStyle=orthogonalEdgeStyle;shape=connector;rounded=0;orthogonalLoop=1;jettySize=auto;html=1;shadow=1;strokeColor=#A50040;strokeWidth=2;align=center;verticalAlign=middle;fontFamily=Helvetica;fontSize=11;fontColor=default;labelBackgroundColor=default;endArrow=classic;flowAnimation=0;fillColor=#d80073;dashed=1;" parent="1" source="Lif8JBEafslfNm7ranTe-3" target="8yeXL6jUUZy5x9-lsI-Y-7" edge="1">
          <mxGeometry relative="1" as="geometry" />
        </mxCell>
        <mxCell id="Lif8JBEafslfNm7ranTe-3" value="Internet&amp;nbsp;&lt;div&gt;HTTP&amp;nbsp;&lt;/div&gt;&lt;div&gt;Client&lt;/div&gt;" style="rounded=1;absoluteArcSize=1;arcSize=2;html=1;strokeColor=none;gradientColor=none;shadow=0;dashed=0;fontSize=12;fontColor=#9E9E9E;align=left;verticalAlign=top;spacing=10;spacingTop=-4;fillColor=#F1F8E9;" parent="1" vertex="1">
          <mxGeometry x="84.75" y="230" width="80.5" height="130" as="geometry" />
        </mxCell>
        <mxCell id="Lif8JBEafslfNm7ranTe-4" value="Architecture: FortiGate HA Architecture in Google Cloud" style="fillColor=#4DA1F5;strokeColor=none;shadow=1;gradientColor=none;fontSize=14;align=left;spacingLeft=50;fontColor=#ffffff;html=1;" parent="1" vertex="1">
          <mxGeometry x="220.5" y="130" width="650" height="40" as="geometry" />
        </mxCell>
        <mxCell id="Lif8JBEafslfNm7ranTe-6" value="" style="strokeColor=#dddddd;fillColor=#ffffff;shadow=1;strokeWidth=1;rounded=1;absoluteArcSize=1;arcSize=2;labelPosition=center;verticalLabelPosition=middle;align=center;verticalAlign=bottom;spacingLeft=0;fontColor=#999999;fontSize=12;whiteSpace=wrap;spacingBottom=2;html=1;" parent="1" vertex="1">
          <mxGeometry x="94" y="291" width="60.5" height="60" as="geometry" />
        </mxCell>
        <mxCell id="Lif8JBEafslfNm7ranTe-7" value="" style="dashed=0;connectable=0;html=1;fillColor=#757575;strokeColor=none;shape=mxgraph.gcp2.mobile_devices;part=1;" parent="Lif8JBEafslfNm7ranTe-6" vertex="1">
          <mxGeometry x="0.5" width="50" height="36.5" relative="1" as="geometry">
            <mxPoint x="-25" y="16.75" as="offset" />
          </mxGeometry>
        </mxCell>
        <mxCell id="8yeXL6jUUZy5x9-lsI-Y-14" style="edgeStyle=orthogonalEdgeStyle;shape=connector;rounded=0;orthogonalLoop=1;jettySize=auto;html=1;entryX=0;entryY=0.5;entryDx=0;entryDy=0;shadow=1;strokeColor=#A50040;strokeWidth=2;align=center;verticalAlign=middle;fontFamily=Helvetica;fontSize=11;fontColor=default;labelBackgroundColor=default;endArrow=classic;flowAnimation=0;fillColor=#d80073;exitX=0.937;exitY=0.328;exitDx=0;exitDy=0;exitPerimeter=0;dashed=1;" parent="1" source="8yeXL6jUUZy5x9-lsI-Y-7" target="8yeXL6jUUZy5x9-lsI-Y-9" edge="1">
          <mxGeometry relative="1" as="geometry" />
        </mxCell>
        <mxCell id="8yeXL6jUUZy5x9-lsI-Y-7" value="Internet" style="ellipse;shape=cloud;whiteSpace=wrap;html=1;align=center;" parent="1" vertex="1">
          <mxGeometry x="60" y="411" width="130" height="79" as="geometry" />
        </mxCell>
        <mxCell id="8yeXL6jUUZy5x9-lsI-Y-52" style="edgeStyle=orthogonalEdgeStyle;shape=connector;rounded=0;orthogonalLoop=1;jettySize=auto;html=1;entryX=0.88;entryY=0.25;entryDx=0;entryDy=0;entryPerimeter=0;shadow=1;strokeColor=#006EAF;strokeWidth=2;align=center;verticalAlign=middle;fontFamily=Helvetica;fontSize=11;fontColor=default;labelBackgroundColor=default;endArrow=classic;flowAnimation=0;fillColor=#1ba1e2;" parent="1" source="8yeXL6jUUZy5x9-lsI-Y-46" target="8yeXL6jUUZy5x9-lsI-Y-7" edge="1">
          <mxGeometry relative="1" as="geometry" />
        </mxCell>
        <mxCell id="8yeXL6jUUZy5x9-lsI-Y-55" style="edgeStyle=orthogonalEdgeStyle;shape=connector;rounded=0;orthogonalLoop=1;jettySize=auto;html=1;entryX=0.872;entryY=0.801;entryDx=0;entryDy=0;entryPerimeter=0;shadow=1;strokeColor=#006EAF;strokeWidth=2;align=center;verticalAlign=middle;fontFamily=Helvetica;fontSize=11;fontColor=default;labelBackgroundColor=default;endArrow=classic;flowAnimation=0;fillColor=#1ba1e2;" parent="1" source="8yeXL6jUUZy5x9-lsI-Y-48" target="8yeXL6jUUZy5x9-lsI-Y-7" edge="1">
          <mxGeometry relative="1" as="geometry" />
        </mxCell>
        <mxCell id="8yeXL6jUUZy5x9-lsI-Y-90" value="" style="group" parent="1" vertex="1" connectable="0">
          <mxGeometry x="340.5" y="280" width="140" height="340" as="geometry" />
        </mxCell>
        <mxCell id="8yeXL6jUUZy5x9-lsI-Y-86" value="" style="rounded=0;whiteSpace=wrap;html=1;fontFamily=Helvetica;fontSize=11;fontColor=default;labelBackgroundColor=default;shadow=1;strokeColor=#B3B3B3;" parent="8yeXL6jUUZy5x9-lsI-Y-90" vertex="1">
          <mxGeometry width="120" height="340" as="geometry" />
        </mxCell>
        <mxCell id="8yeXL6jUUZy5x9-lsI-Y-98" value="&lt;b&gt;&lt;i&gt;subnet-ext&lt;/i&gt;&lt;/b&gt;&lt;div&gt;&lt;div&gt;10.0.1.0/24&lt;/div&gt;&lt;/div&gt;" style="sketch=0;points=[[0,0,0],[0.25,0,0],[0.5,0,0],[0.75,0,0],[1,0,0],[1,0.25,0],[1,0.5,0],[1,0.75,0],[1,1,0],[0.75,1,0],[0.5,1,0],[0.25,1,0],[0,1,0],[0,0.75,0],[0,0.5,0],[0,0.25,0]];rounded=1;absoluteArcSize=1;arcSize=2;html=1;strokeColor=none;gradientColor=none;shadow=0;dashed=0;fontSize=12;fontColor=#9E9E9E;align=left;verticalAlign=top;spacing=10;spacingTop=-4;whiteSpace=wrap;fillColor=#D4E1F5;fontFamily=Helvetica;labelBackgroundColor=none;" parent="8yeXL6jUUZy5x9-lsI-Y-90" vertex="1">
          <mxGeometry x="10" y="20" width="100" height="300" as="geometry" />
        </mxCell>
        <mxCell id="8yeXL6jUUZy5x9-lsI-Y-91" value="" style="group" parent="1" vertex="1" connectable="0">
          <mxGeometry x="600.5" y="280" width="120" height="340" as="geometry" />
        </mxCell>
        <mxCell id="8yeXL6jUUZy5x9-lsI-Y-92" value="" style="rounded=0;whiteSpace=wrap;html=1;fontFamily=Helvetica;fontSize=11;fontColor=default;labelBackgroundColor=default;shadow=1;strokeColor=#B3B3B3;" parent="8yeXL6jUUZy5x9-lsI-Y-91" vertex="1">
          <mxGeometry width="120" height="340" as="geometry" />
        </mxCell>
        <mxCell id="8yeXL6jUUZy5x9-lsI-Y-100" value="&lt;b style=&quot;background-color: initial;&quot;&gt;&lt;i&gt;subnet-int&lt;/i&gt;&lt;/b&gt;&lt;br&gt;&lt;div&gt;&lt;div&gt;10.0.2.0/24&lt;/div&gt;&lt;/div&gt;" style="sketch=0;points=[[0,0,0],[0.25,0,0],[0.5,0,0],[0.75,0,0],[1,0,0],[1,0.25,0],[1,0.5,0],[1,0.75,0],[1,1,0],[0.75,1,0],[0.5,1,0],[0.25,1,0],[0,1,0],[0,0.75,0],[0,0.5,0],[0,0.25,0]];rounded=1;absoluteArcSize=1;arcSize=2;html=1;strokeColor=none;gradientColor=none;shadow=0;dashed=0;fontSize=12;fontColor=#9E9E9E;align=left;verticalAlign=top;spacing=10;spacingTop=-4;whiteSpace=wrap;fillColor=#F1F8E9;fontFamily=Helvetica;labelBackgroundColor=none;spacingLeft=10;" parent="8yeXL6jUUZy5x9-lsI-Y-91" vertex="1">
          <mxGeometry x="10" y="20" width="100" height="300" as="geometry" />
        </mxCell>
        <mxCell id="8yeXL6jUUZy5x9-lsI-Y-115" value="&lt;div style=&quot;font-size: 12px;&quot;&gt;&lt;span style=&quot;font-weight: normal;&quot;&gt;&lt;font style=&quot;font-size: 12px;&quot;&gt;Internal LB&lt;/font&gt;&lt;/span&gt;&lt;/div&gt;&lt;i style=&quot;font-size: 12px;&quot;&gt;&lt;font style=&quot;font-size: 12px;&quot;&gt;ilb-fgt-outb&lt;/font&gt;&lt;/i&gt;&lt;div&gt;&lt;span style=&quot;font-size: 12px;&quot;&gt;&lt;font style=&quot;font-size: 12px;&quot;&gt;10.0.2.10&lt;/font&gt;&lt;/span&gt;&lt;/div&gt;" style="sketch=0;html=1;verticalAlign=top;labelPosition=center;verticalLabelPosition=bottom;align=center;spacingTop=-6;fontSize=11;fontStyle=1;fontColor=default;shape=image;aspect=fixed;imageAspect=0;image=data:image/svg+xml,PHN2ZyB4bWxucz0iaHR0cDovL3d3dy53My5vcmcvMjAwMC9zdmciIHhtbG5zOnY9Imh0dHBzOi8vdmVjdGEuaW8vbmFubyIgd2lkdGg9IjIwIiBoZWlnaHQ9IjIwIiB2aWV3Qm94PSIwIDAgMjAgMjAiPiYjeGE7CTxzdHlsZSB0eXBlPSJ0ZXh0L2NzcyI+JiN4YTsJLnN0MHtmaWxsOiM0Mjg1ZjQ7fSYjeGE7CS5zdDF7ZmlsbDojNjY5ZGY2O30mI3hhOwkuc3Qye2ZpbGw6I2FlY2JmYTt9JiN4YTsJPC9zdHlsZT4mI3hhOwk8cGF0aCBjbGFzcz0ic3QxIiBkPSJNMTYgMTBoMnY0aC0yem0tNyAwaDJ2NEg5em0tNyAwaDJ2NEgyeiIvPiYjeGE7CTxwYXRoIGNsYXNzPSJzdDAiIGQ9Ik05IDVoMnY0SDl6Ii8+JiN4YTsJPHBhdGggY2xhc3M9InN0MSIgZD0iTTIgOWgxNnYySDJ6Ii8+JiN4YTsJPHBhdGggY2xhc3M9InN0MiIgZD0iTTQgMGgxMnY1SDR6Ii8+JiN4YTsJPHBhdGggY2xhc3M9InN0MSIgZD0iTTEwIDBoNnY1aC02eiIvPiYjeGE7CTxwYXRoIGNsYXNzPSJzdDIiIGQ9Ik0xNCAxNGg2djZoLTZ6TTAgMTRoNnY2SDB6Ii8+JiN4YTsJPHBhdGggY2xhc3M9InN0MSIgZD0iTTMgMTRoM3Y2SDN6Ii8+JiN4YTsJPHBhdGggY2xhc3M9InN0MiIgZD0iTTcgMTRoNnY2SDd6Ii8+JiN4YTsJPHBhdGggY2xhc3M9InN0MSIgZD0iTTEwIDE0aDN2NmgtM3ptNyAwaDN2NmgtM3oiLz4mI3hhOzwvc3ZnPg==;fontFamily=Helvetica;labelBackgroundColor=none;" parent="8yeXL6jUUZy5x9-lsI-Y-91" vertex="1">
          <mxGeometry x="60.00237931034485" y="152.6" width="34.8" height="34.8" as="geometry" />
        </mxCell>
        <mxCell id="8yeXL6jUUZy5x9-lsI-Y-95" value="" style="group" parent="1" vertex="1" connectable="0">
          <mxGeometry x="470.5" y="390" width="150" height="280" as="geometry" />
        </mxCell>
        <mxCell id="8yeXL6jUUZy5x9-lsI-Y-82" value="" style="rounded=0;whiteSpace=wrap;html=1;fontFamily=Helvetica;fontSize=11;fontColor=default;labelBackgroundColor=default;shadow=1;strokeColor=#B3B3B3;" parent="8yeXL6jUUZy5x9-lsI-Y-95" vertex="1">
          <mxGeometry width="120" height="110" as="geometry" />
        </mxCell>
        <mxCell id="8yeXL6jUUZy5x9-lsI-Y-102" value="&lt;b&gt;&lt;i&gt;subnet-hasync&lt;/i&gt;&lt;/b&gt;&lt;div&gt;&lt;div&gt;10.0.3.0/24&lt;/div&gt;&lt;/div&gt;" style="sketch=0;points=[[0,0,0],[0.25,0,0],[0.5,0,0],[0.75,0,0],[1,0,0],[1,0.25,0],[1,0.5,0],[1,0.75,0],[1,1,0],[0.75,1,0],[0.5,1,0],[0.25,1,0],[0,1,0],[0,0.75,0],[0,0.5,0],[0,0.25,0]];rounded=1;absoluteArcSize=1;arcSize=2;html=1;strokeColor=none;gradientColor=none;shadow=0;dashed=0;fontSize=12;fontColor=#9E9E9E;align=left;verticalAlign=top;spacing=10;spacingTop=20;whiteSpace=wrap;fillColor=#E1D5E7;fontFamily=Helvetica;labelBackgroundColor=none;" parent="8yeXL6jUUZy5x9-lsI-Y-95" vertex="1">
          <mxGeometry x="5" y="10" width="110" height="90" as="geometry" />
        </mxCell>
        <mxCell id="8yeXL6jUUZy5x9-lsI-Y-106" value="&lt;font color=&quot;#808080&quot;&gt;Zone A&lt;/font&gt;" style="sketch=0;points=[[0,0,0],[0.25,0,0],[0.5,0,0],[0.75,0,0],[1,0,0],[1,0.25,0],[1,0.5,0],[1,0.75,0],[1,1,0],[0.75,1,0],[0.5,1,0],[0.25,1,0],[0,1,0],[0,0.75,0],[0,0.5,0],[0,0.25,0]];rounded=1;absoluteArcSize=1;arcSize=2;html=1;strokeColor=default;gradientColor=none;shadow=0;dashed=1;fontSize=12;fontColor=#9E9E9E;align=left;verticalAlign=top;spacing=10;spacingTop=-4;whiteSpace=wrap;fillColor=#EFEBE9;fontFamily=Helvetica;labelBackgroundColor=none;opacity=60;glass=1;" parent="8yeXL6jUUZy5x9-lsI-Y-95" vertex="1">
          <mxGeometry x="-40" y="-100" width="190" height="110" as="geometry" />
        </mxCell>
        <mxCell id="8yeXL6jUUZy5x9-lsI-Y-107" value="&lt;font color=&quot;#808080&quot;&gt;Zone B&lt;/font&gt;" style="sketch=0;points=[[0,0,0],[0.25,0,0],[0.5,0,0],[0.75,0,0],[1,0,0],[1,0.25,0],[1,0.5,0],[1,0.75,0],[1,1,0],[0.75,1,0],[0.5,1,0],[0.25,1,0],[0,1,0],[0,0.75,0],[0,0.5,0],[0,0.25,0]];rounded=1;absoluteArcSize=1;arcSize=2;html=1;strokeColor=default;gradientColor=none;shadow=0;dashed=1;fontSize=12;fontColor=#9E9E9E;align=left;verticalAlign=top;spacing=10;spacingTop=-4;whiteSpace=wrap;fillColor=#EFEBE9;fontFamily=Helvetica;labelBackgroundColor=none;opacity=60;glass=1;" parent="8yeXL6jUUZy5x9-lsI-Y-95" vertex="1">
          <mxGeometry x="-40" y="90" width="190" height="110" as="geometry" />
        </mxCell>
        <mxCell id="8yeXL6jUUZy5x9-lsI-Y-108" value="fgt-vm-a" style="shape=image;verticalLabelPosition=top;labelBackgroundColor=none;verticalAlign=bottom;aspect=fixed;imageAspect=0;image=data:image/png,iVBORw0KGgoAAAANSUhEUgAAAEsAAABLCAMAAAAPkIrYAAAAAXNSR0IArs4c6QAAAARnQU1BAACxjwv8YQUAAABdUExURQAAAAAAAN8wIAAAANcoGNorGwAAANcoHAAAANkpHQAAANooGwAAANgpGwAAANkoHAAAANspHQAAANoqGwAAANspHAAAANopHAAAANopHAAAANopG9opHAAAANopHFuQeuMAAAAddFJOUwAQECAgMEBAUFBgYHBwgICPj5+fr6+/v8/P39/vKJk8zQAAAAlwSFlzAAAXEQAAFxEByibzPwAAAXNJREFUWEftlu1ygjAQRS9YlYIiBAQB5f0fs6OQdTd8SSkdO835hTfjmU0mFwUslnWJlOAAODJRHrBPRolbV3kTZMBGJrcQCOpRqnVcKmxJyaWT8DLTtWsf4ZNLJ1DW1fA+rjw+xWf6tMSVbB9r22S5S1cGOC5z5fGRFoFmMuZKdYszclGxS+nKm90RrunijPexcKWqHewbrupsTAXgxF0HqvEDH3BkEu4aV3HsDHXfZM5cLxHU9bU7U0P8dDmTNK5PQ/GkGjqvHh7ndTUEjGCuKzcEjI8fdG3FvTdPiJHO3CN1qAfqUGCuaNxitmvwTiT93e6Bdfv5emDs7yWa76rrKjcorma3X3YN8c9cnnlBGXNdE/x910svQ3c/jna9KWkmCIGNTDo4QCQT1bqmfx9NNkAmk3IdV+S3KHLppAO5lE4i4Rr7n2NCLl8nO+uyrl9zXXRHL+SS3WWQq2TRSn3kLHJ5srse4Mikg9P3JYvF8kZ8AYKZ25oURX56AAAAAElFTkSuQmCC;fontStyle=3;labelPosition=center;align=center;" parent="8yeXL6jUUZy5x9-lsI-Y-95" vertex="1">
          <mxGeometry x="35" y="-60" width="50" height="50" as="geometry" />
        </mxCell>
        <mxCell id="8yeXL6jUUZy5x9-lsI-Y-109" value="fgt-vm-b" style="shape=image;verticalLabelPosition=bottom;labelBackgroundColor=none;verticalAlign=top;aspect=fixed;imageAspect=0;image=data:image/png,iVBORw0KGgoAAAANSUhEUgAAAEsAAABLCAMAAAAPkIrYAAAAAXNSR0IArs4c6QAAAARnQU1BAACxjwv8YQUAAABdUExURQAAAAAAAN8wIAAAANcoGNorGwAAANcoHAAAANkpHQAAANooGwAAANgpGwAAANkoHAAAANspHQAAANoqGwAAANspHAAAANopHAAAANopHAAAANopG9opHAAAANopHFuQeuMAAAAddFJOUwAQECAgMEBAUFBgYHBwgICPj5+fr6+/v8/P39/vKJk8zQAAAAlwSFlzAAAXEQAAFxEByibzPwAAAXNJREFUWEftlu1ygjAQRS9YlYIiBAQB5f0fs6OQdTd8SSkdO835hTfjmU0mFwUslnWJlOAAODJRHrBPRolbV3kTZMBGJrcQCOpRqnVcKmxJyaWT8DLTtWsf4ZNLJ1DW1fA+rjw+xWf6tMSVbB9r22S5S1cGOC5z5fGRFoFmMuZKdYszclGxS+nKm90RrunijPexcKWqHewbrupsTAXgxF0HqvEDH3BkEu4aV3HsDHXfZM5cLxHU9bU7U0P8dDmTNK5PQ/GkGjqvHh7ndTUEjGCuKzcEjI8fdG3FvTdPiJHO3CN1qAfqUGCuaNxitmvwTiT93e6Bdfv5emDs7yWa76rrKjcorma3X3YN8c9cnnlBGXNdE/x910svQ3c/jna9KWkmCIGNTDo4QCQT1bqmfx9NNkAmk3IdV+S3KHLppAO5lE4i4Rr7n2NCLl8nO+uyrl9zXXRHL+SS3WWQq2TRSn3kLHJ5srse4Mikg9P3JYvF8kZ8AYKZ25oURX56AAAAAElFTkSuQmCC;fontStyle=3;labelPosition=center;align=center;" parent="8yeXL6jUUZy5x9-lsI-Y-95" vertex="1">
          <mxGeometry x="35" y="115" width="50" height="50" as="geometry" />
        </mxCell>
        <mxCell id="8yeXL6jUUZy5x9-lsI-Y-84" value="&lt;b&gt;&lt;i&gt;vpc-hasync&lt;/i&gt;&lt;/b&gt;" style="text;html=1;align=center;verticalAlign=middle;whiteSpace=wrap;rounded=0;fontFamily=Helvetica;fontSize=11;fontColor=default;labelBackgroundColor=none;" parent="8yeXL6jUUZy5x9-lsI-Y-95" vertex="1">
          <mxGeometry x="25" y="19" width="80" height="30" as="geometry" />
        </mxCell>
        <mxCell id="8yeXL6jUUZy5x9-lsI-Y-83" value="" style="editableCssRules=.*;html=1;shape=image;verticalLabelPosition=bottom;labelBackgroundColor=#ffffff;verticalAlign=top;aspect=fixed;imageAspect=0;image=data:image/svg+xml,PHN2ZyB4bWxucz0iaHR0cDovL3d3dy53My5vcmcvMjAwMC9zdmciIHhtbG5zOnY9Imh0dHBzOi8vdmVjdGEuaW8vbmFubyIgd2lkdGg9IjIwIiBoZWlnaHQ9IjIwIiB2aWV3Qm94PSIwIDAgMjAgMjAiPiYjeGE7CTxzdHlsZSB0eXBlPSJ0ZXh0L2NzcyI+JiN4YTsJLnN0MHtmaWxsOiM0Mjg1ZjQ7fSYjeGE7CS5zdDF7ZmlsbDojNjY5ZGY2O30mI3hhOwkuc3Qye2ZpbGw6I2FlY2JmYTt9JiN4YTsJPC9zdHlsZT4mI3hhOwk8cGF0aCBjbGFzcz0ic3QyIiBkPSJNMTQgMGg2djZoLTZ6Ii8+JiN4YTsJPHBhdGggY2xhc3M9InN0MSIgZD0iTTE3IDBoM3Y2aC0zeiIvPiYjeGE7CTxwYXRoIGNsYXNzPSJzdDIiIGQ9Ik0xNCAxNGg2djZoLTZ6Ii8+JiN4YTsJPHBhdGggY2xhc3M9InN0MSIgZD0iTTE3IDE0aDN2NmgtM3oiLz4mI3hhOwk8cGF0aCBjbGFzcz0ic3QyIiBkPSJNMCAwaDZ2NkgweiIvPiYjeGE7CTxwYXRoIGNsYXNzPSJzdDEiIGQ9Ik0zIDBoM3Y2SDN6Ii8+JiN4YTsJPHBhdGggY2xhc3M9InN0MiIgZD0iTTAgMTRoNnY2SDB6Ii8+JiN4YTsJPGcgY2xhc3M9InN0MSI+JiN4YTsJCTxwYXRoIGQ9Ik0zIDE0aDN2Nkgzek02IDJoOHYySDZ6Ii8+JiN4YTsJCTxwYXRoIGQ9Ik02IDE2aDh2Mkg2ek0xNiA2aDJ2OGgtMnpNMiA2aDJ2OEgyeiIvPiYjeGE7CTwvZz4mI3hhOwk8cGF0aCBjbGFzcz0ic3QwIiBkPSJNMiA2aDJ2Mkgyem0xNCAwaDJ2MmgtMnpNNiAyaDJ2Mkg2em0wIDE0aDJ2Mkg2eiIvPiYjeGE7PC9zdmc+;fontFamily=Helvetica;fontSize=11;fontColor=default;" parent="8yeXL6jUUZy5x9-lsI-Y-95" vertex="1">
          <mxGeometry x="5" y="24" width="20" height="20" as="geometry" />
        </mxCell>
        <mxCell id="8yeXL6jUUZy5x9-lsI-Y-167" value="port1" style="text;html=1;align=center;verticalAlign=middle;whiteSpace=wrap;rounded=0;fontFamily=Helvetica;fontSize=11;fontColor=default;labelBackgroundColor=none;" parent="8yeXL6jUUZy5x9-lsI-Y-95" vertex="1">
          <mxGeometry x="-10.5" y="-60" width="60" height="30" as="geometry" />
        </mxCell>
        <mxCell id="8yeXL6jUUZy5x9-lsI-Y-168" value="port1" style="text;html=1;align=center;verticalAlign=middle;whiteSpace=wrap;rounded=0;fontFamily=Helvetica;fontSize=11;fontColor=default;labelBackgroundColor=none;" parent="8yeXL6jUUZy5x9-lsI-Y-95" vertex="1">
          <mxGeometry x="-10.5" y="135" width="60" height="30" as="geometry" />
        </mxCell>
        <mxCell id="8yeXL6jUUZy5x9-lsI-Y-170" value="port2" style="text;html=1;align=center;verticalAlign=middle;whiteSpace=wrap;rounded=0;fontFamily=Helvetica;fontSize=11;fontColor=default;labelBackgroundColor=none;" parent="8yeXL6jUUZy5x9-lsI-Y-95" vertex="1">
          <mxGeometry x="69.5" y="135" width="60" height="30" as="geometry" />
        </mxCell>
        <mxCell id="8yeXL6jUUZy5x9-lsI-Y-171" value="port2" style="text;html=1;align=center;verticalAlign=middle;whiteSpace=wrap;rounded=0;fontFamily=Helvetica;fontSize=11;fontColor=default;labelBackgroundColor=none;" parent="8yeXL6jUUZy5x9-lsI-Y-95" vertex="1">
          <mxGeometry x="69.5" y="-60" width="60" height="30" as="geometry" />
        </mxCell>
        <mxCell id="8yeXL6jUUZy5x9-lsI-Y-172" value="port3" style="text;html=1;align=center;verticalAlign=middle;whiteSpace=wrap;rounded=0;fontFamily=Helvetica;fontSize=11;fontColor=default;labelBackgroundColor=none;" parent="8yeXL6jUUZy5x9-lsI-Y-95" vertex="1">
          <mxGeometry x="9.5" y="85" width="60" height="30" as="geometry" />
        </mxCell>
        <mxCell id="8yeXL6jUUZy5x9-lsI-Y-175" value="port3" style="text;html=1;align=center;verticalAlign=middle;whiteSpace=wrap;rounded=0;fontFamily=Helvetica;fontSize=11;fontColor=default;labelBackgroundColor=none;" parent="8yeXL6jUUZy5x9-lsI-Y-95" vertex="1">
          <mxGeometry x="9.5" y="-20" width="60" height="30" as="geometry" />
        </mxCell>
        <mxCell id="8yeXL6jUUZy5x9-lsI-Y-87" value="&lt;b&gt;&lt;i&gt;vpc-external&lt;/i&gt;&lt;/b&gt;" style="text;html=1;align=center;verticalAlign=middle;whiteSpace=wrap;rounded=0;fontFamily=Helvetica;fontSize=11;fontColor=default;labelBackgroundColor=none;" parent="1" vertex="1">
          <mxGeometry x="360.5" y="250" width="80" height="30" as="geometry" />
        </mxCell>
        <mxCell id="8yeXL6jUUZy5x9-lsI-Y-104" value="" style="editableCssRules=.*;html=1;shape=image;verticalLabelPosition=bottom;labelBackgroundColor=#ffffff;verticalAlign=top;aspect=fixed;imageAspect=0;image=data:image/svg+xml,PHN2ZyB4bWxucz0iaHR0cDovL3d3dy53My5vcmcvMjAwMC9zdmciIHhtbG5zOnY9Imh0dHBzOi8vdmVjdGEuaW8vbmFubyIgd2lkdGg9IjIwIiBoZWlnaHQ9IjIwIiB2aWV3Qm94PSIwIDAgMjAgMjAiPiYjeGE7CTxzdHlsZSB0eXBlPSJ0ZXh0L2NzcyI+JiN4YTsJLnN0MHtmaWxsOiM0Mjg1ZjQ7fSYjeGE7CS5zdDF7ZmlsbDojNjY5ZGY2O30mI3hhOwkuc3Qye2ZpbGw6I2FlY2JmYTt9JiN4YTsJPC9zdHlsZT4mI3hhOwk8cGF0aCBjbGFzcz0ic3QyIiBkPSJNMTQgMGg2djZoLTZ6Ii8+JiN4YTsJPHBhdGggY2xhc3M9InN0MSIgZD0iTTE3IDBoM3Y2aC0zeiIvPiYjeGE7CTxwYXRoIGNsYXNzPSJzdDIiIGQ9Ik0xNCAxNGg2djZoLTZ6Ii8+JiN4YTsJPHBhdGggY2xhc3M9InN0MSIgZD0iTTE3IDE0aDN2NmgtM3oiLz4mI3hhOwk8cGF0aCBjbGFzcz0ic3QyIiBkPSJNMCAwaDZ2NkgweiIvPiYjeGE7CTxwYXRoIGNsYXNzPSJzdDEiIGQ9Ik0zIDBoM3Y2SDN6Ii8+JiN4YTsJPHBhdGggY2xhc3M9InN0MiIgZD0iTTAgMTRoNnY2SDB6Ii8+JiN4YTsJPGcgY2xhc3M9InN0MSI+JiN4YTsJCTxwYXRoIGQ9Ik0zIDE0aDN2Nkgzek02IDJoOHYySDZ6Ii8+JiN4YTsJCTxwYXRoIGQ9Ik02IDE2aDh2Mkg2ek0xNiA2aDJ2OGgtMnpNMiA2aDJ2OEgyeiIvPiYjeGE7CTwvZz4mI3hhOwk8cGF0aCBjbGFzcz0ic3QwIiBkPSJNMiA2aDJ2Mkgyem0xNCAwaDJ2MmgtMnpNNiAyaDJ2Mkg2em0wIDE0aDJ2Mkg2eiIvPiYjeGE7PC9zdmc+;fontFamily=Helvetica;fontSize=11;fontColor=default;" parent="1" vertex="1">
          <mxGeometry x="340.5" y="255" width="20" height="20" as="geometry" />
        </mxCell>
        <mxCell id="8yeXL6jUUZy5x9-lsI-Y-105" value="" style="editableCssRules=.*;html=1;shape=image;verticalLabelPosition=bottom;labelBackgroundColor=#ffffff;verticalAlign=top;aspect=fixed;imageAspect=0;image=data:image/svg+xml,PHN2ZyB4bWxucz0iaHR0cDovL3d3dy53My5vcmcvMjAwMC9zdmciIHhtbG5zOnY9Imh0dHBzOi8vdmVjdGEuaW8vbmFubyIgd2lkdGg9IjIwIiBoZWlnaHQ9IjIwIiB2aWV3Qm94PSIwIDAgMjAgMjAiPiYjeGE7CTxzdHlsZSB0eXBlPSJ0ZXh0L2NzcyI+JiN4YTsJLnN0MHtmaWxsOiM0Mjg1ZjQ7fSYjeGE7CS5zdDF7ZmlsbDojNjY5ZGY2O30mI3hhOwkuc3Qye2ZpbGw6I2FlY2JmYTt9JiN4YTsJPC9zdHlsZT4mI3hhOwk8cGF0aCBjbGFzcz0ic3QyIiBkPSJNMTQgMGg2djZoLTZ6Ii8+JiN4YTsJPHBhdGggY2xhc3M9InN0MSIgZD0iTTE3IDBoM3Y2aC0zeiIvPiYjeGE7CTxwYXRoIGNsYXNzPSJzdDIiIGQ9Ik0xNCAxNGg2djZoLTZ6Ii8+JiN4YTsJPHBhdGggY2xhc3M9InN0MSIgZD0iTTE3IDE0aDN2NmgtM3oiLz4mI3hhOwk8cGF0aCBjbGFzcz0ic3QyIiBkPSJNMCAwaDZ2NkgweiIvPiYjeGE7CTxwYXRoIGNsYXNzPSJzdDEiIGQ9Ik0zIDBoM3Y2SDN6Ii8+JiN4YTsJPHBhdGggY2xhc3M9InN0MiIgZD0iTTAgMTRoNnY2SDB6Ii8+JiN4YTsJPGcgY2xhc3M9InN0MSI+JiN4YTsJCTxwYXRoIGQ9Ik0zIDE0aDN2Nkgzek02IDJoOHYySDZ6Ii8+JiN4YTsJCTxwYXRoIGQ9Ik02IDE2aDh2Mkg2ek0xNiA2aDJ2OGgtMnpNMiA2aDJ2OEgyeiIvPiYjeGE7CTwvZz4mI3hhOwk8cGF0aCBjbGFzcz0ic3QwIiBkPSJNMiA2aDJ2Mkgyem0xNCAwaDJ2MmgtMnpNNiAyaDJ2Mkg2em0wIDE0aDJ2Mkg2eiIvPiYjeGE7PC9zdmc+;fontFamily=Helvetica;fontSize=11;fontColor=default;" parent="1" vertex="1">
          <mxGeometry x="600.5" y="255" width="20" height="20" as="geometry" />
        </mxCell>
        <mxCell id="8yeXL6jUUZy5x9-lsI-Y-93" value="&lt;b&gt;&lt;i&gt;vpc-internal&lt;/i&gt;&lt;/b&gt;" style="text;html=1;align=center;verticalAlign=middle;whiteSpace=wrap;rounded=0;fontFamily=Helvetica;fontSize=11;fontColor=default;labelBackgroundColor=none;" parent="1" vertex="1">
          <mxGeometry x="620.5" y="250" width="80" height="30" as="geometry" />
        </mxCell>
        <mxCell id="8yeXL6jUUZy5x9-lsI-Y-111" style="edgeStyle=orthogonalEdgeStyle;shape=connector;rounded=0;orthogonalLoop=1;jettySize=auto;html=1;shadow=1;strokeColor=#A50040;strokeWidth=2;align=center;verticalAlign=middle;fontFamily=Helvetica;fontSize=11;fontColor=default;labelBackgroundColor=default;endArrow=classic;flowAnimation=0;fillColor=#d80073;exitX=1;exitY=0.5;exitDx=0;exitDy=0;entryX=0;entryY=0.75;entryDx=0;entryDy=0;dashed=1;" parent="1" source="8yeXL6jUUZy5x9-lsI-Y-21" target="8yeXL6jUUZy5x9-lsI-Y-108" edge="1">
          <mxGeometry relative="1" as="geometry" />
        </mxCell>
        <mxCell id="8yeXL6jUUZy5x9-lsI-Y-112" style="edgeStyle=orthogonalEdgeStyle;shape=connector;rounded=0;orthogonalLoop=1;jettySize=auto;html=1;shadow=1;strokeColor=#A50040;strokeWidth=2;align=center;verticalAlign=middle;fontFamily=Helvetica;fontSize=11;fontColor=default;labelBackgroundColor=default;endArrow=classic;flowAnimation=0;fillColor=#d80073;exitX=1;exitY=0.5;exitDx=0;exitDy=0;entryX=0;entryY=0.25;entryDx=0;entryDy=0;dashed=1;" parent="1" source="8yeXL6jUUZy5x9-lsI-Y-21" target="8yeXL6jUUZy5x9-lsI-Y-109" edge="1">
          <mxGeometry relative="1" as="geometry" />
        </mxCell>
        <mxCell id="8yeXL6jUUZy5x9-lsI-Y-119" value="" style="endArrow=oval;html=1;rounded=0;shadow=1;strokeColor=#006EAF;strokeWidth=2;align=center;verticalAlign=middle;fontFamily=Helvetica;fontSize=11;fontColor=default;labelBackgroundColor=default;edgeStyle=orthogonalEdgeStyle;flowAnimation=0;fillColor=#1ba1e2;exitX=0.5;exitY=0;exitDx=0;exitDy=0;endFill=1;" parent="1" source="8yeXL6jUUZy5x9-lsI-Y-109" edge="1">
          <mxGeometry width="50" height="50" relative="1" as="geometry">
            <mxPoint x="640.5" y="440" as="sourcePoint" />
            <mxPoint x="530.5" y="470" as="targetPoint" />
          </mxGeometry>
        </mxCell>
        <mxCell id="8yeXL6jUUZy5x9-lsI-Y-120" value="" style="endArrow=oval;html=1;rounded=0;shadow=1;strokeColor=#006EAF;strokeWidth=2;align=center;verticalAlign=middle;fontFamily=Helvetica;fontSize=11;fontColor=default;labelBackgroundColor=default;edgeStyle=orthogonalEdgeStyle;flowAnimation=0;fillColor=#1ba1e2;exitX=0.5;exitY=1;exitDx=0;exitDy=0;endFill=1;" parent="1" source="8yeXL6jUUZy5x9-lsI-Y-108" edge="1">
          <mxGeometry width="50" height="50" relative="1" as="geometry">
            <mxPoint x="950.5" y="411" as="sourcePoint" />
            <mxPoint x="530.5" y="410" as="targetPoint" />
          </mxGeometry>
        </mxCell>
        <mxCell id="8yeXL6jUUZy5x9-lsI-Y-124" style="edgeStyle=orthogonalEdgeStyle;shape=connector;rounded=0;orthogonalLoop=1;jettySize=auto;html=1;entryX=1;entryY=0.5;entryDx=0;entryDy=0;shadow=1;strokeColor=#006EAF;strokeWidth=2;align=center;verticalAlign=middle;fontFamily=Helvetica;fontSize=11;fontColor=default;labelBackgroundColor=default;endArrow=classic;flowAnimation=0;fillColor=#1ba1e2;" parent="1" source="8yeXL6jUUZy5x9-lsI-Y-109" target="8yeXL6jUUZy5x9-lsI-Y-48" edge="1">
          <mxGeometry relative="1" as="geometry" />
        </mxCell>
        <mxCell id="8yeXL6jUUZy5x9-lsI-Y-126" style="edgeStyle=orthogonalEdgeStyle;shape=connector;rounded=0;orthogonalLoop=1;jettySize=auto;html=1;entryX=1;entryY=0.5;entryDx=0;entryDy=0;shadow=1;strokeColor=#006EAF;strokeWidth=2;align=center;verticalAlign=middle;fontFamily=Helvetica;fontSize=11;fontColor=default;labelBackgroundColor=default;endArrow=classic;flowAnimation=0;fillColor=#1ba1e2;" parent="1" source="8yeXL6jUUZy5x9-lsI-Y-108" target="8yeXL6jUUZy5x9-lsI-Y-46" edge="1">
          <mxGeometry relative="1" as="geometry" />
        </mxCell>
        <mxCell id="8yeXL6jUUZy5x9-lsI-Y-127" style="edgeStyle=orthogonalEdgeStyle;shape=connector;rounded=0;orthogonalLoop=1;jettySize=auto;html=1;exitX=0;exitY=0.5;exitDx=0;exitDy=0;entryX=1;entryY=0.75;entryDx=0;entryDy=0;shadow=1;strokeColor=#006EAF;strokeWidth=2;align=center;verticalAlign=middle;fontFamily=Helvetica;fontSize=11;fontColor=default;labelBackgroundColor=default;endArrow=classic;flowAnimation=0;fillColor=#1ba1e2;" parent="1" source="8yeXL6jUUZy5x9-lsI-Y-115" target="8yeXL6jUUZy5x9-lsI-Y-108" edge="1">
          <mxGeometry relative="1" as="geometry" />
        </mxCell>
        <mxCell id="8yeXL6jUUZy5x9-lsI-Y-128" style="edgeStyle=orthogonalEdgeStyle;shape=connector;rounded=0;orthogonalLoop=1;jettySize=auto;html=1;exitX=0;exitY=0.5;exitDx=0;exitDy=0;entryX=1;entryY=0.25;entryDx=0;entryDy=0;shadow=1;strokeColor=#006EAF;strokeWidth=2;align=center;verticalAlign=middle;fontFamily=Helvetica;fontSize=11;fontColor=default;labelBackgroundColor=default;endArrow=classic;flowAnimation=0;fillColor=#1ba1e2;" parent="1" source="8yeXL6jUUZy5x9-lsI-Y-115" target="8yeXL6jUUZy5x9-lsI-Y-109" edge="1">
          <mxGeometry relative="1" as="geometry" />
        </mxCell>
        <mxCell id="8yeXL6jUUZy5x9-lsI-Y-134" value="&lt;b&gt;Google &lt;/b&gt;Cloud Platform&lt;div&gt;&lt;b&gt;&lt;i&gt;app01-project&lt;/i&gt;&lt;/b&gt;&lt;/div&gt;" style="fillColor=#F6F6F6;strokeColor=default;shadow=0;gradientColor=none;fontSize=14;align=left;spacing=10;fontColor=#717171;9E9E9E;verticalAlign=top;spacingTop=-4;fontStyle=0;spacingLeft=40;html=1;whiteSpace=wrap;fontFamily=Helvetica;labelBackgroundColor=default;" parent="1" vertex="1">
          <mxGeometry x="860.5" y="210" width="240" height="210" as="geometry" />
        </mxCell>
        <mxCell id="8yeXL6jUUZy5x9-lsI-Y-135" value="" style="shape=mxgraph.gcp2.google_cloud_platform;fillColor=#F6F6F6;strokeColor=none;shadow=0;gradientColor=none;fontFamily=Helvetica;fontSize=11;fontColor=default;labelBackgroundColor=default;" parent="8yeXL6jUUZy5x9-lsI-Y-134" vertex="1">
          <mxGeometry width="23" height="20" relative="1" as="geometry">
            <mxPoint x="20" y="10" as="offset" />
          </mxGeometry>
        </mxCell>
        <mxCell id="8yeXL6jUUZy5x9-lsI-Y-136" value="&lt;b&gt;Google &lt;/b&gt;Cloud Platform&lt;div&gt;&lt;b&gt;&lt;i&gt;app02-project&lt;/i&gt;&lt;/b&gt;&lt;/div&gt;" style="fillColor=#F6F6F6;strokeColor=default;shadow=0;gradientColor=none;fontSize=14;align=left;spacing=10;fontColor=#717171;9E9E9E;verticalAlign=top;spacingTop=-4;fontStyle=0;spacingLeft=40;html=1;whiteSpace=wrap;fontFamily=Helvetica;labelBackgroundColor=default;" parent="1" vertex="1">
          <mxGeometry x="860.5" y="440" width="240" height="210" as="geometry" />
        </mxCell>
        <mxCell id="8yeXL6jUUZy5x9-lsI-Y-137" value="" style="shape=mxgraph.gcp2.google_cloud_platform;fillColor=#F6F6F6;strokeColor=none;shadow=0;gradientColor=none;fontFamily=Helvetica;fontSize=11;fontColor=default;labelBackgroundColor=default;" parent="8yeXL6jUUZy5x9-lsI-Y-136" vertex="1">
          <mxGeometry width="23" height="20" relative="1" as="geometry">
            <mxPoint x="20" y="10" as="offset" />
          </mxGeometry>
        </mxCell>
        <mxCell id="8yeXL6jUUZy5x9-lsI-Y-155" value="" style="group" parent="8yeXL6jUUZy5x9-lsI-Y-136" vertex="1" connectable="0">
          <mxGeometry x="-90.5" y="70" width="300" height="120" as="geometry" />
        </mxCell>
        <mxCell id="8yeXL6jUUZy5x9-lsI-Y-156" value="" style="rounded=0;whiteSpace=wrap;html=1;fontFamily=Helvetica;fontSize=11;fontColor=default;labelBackgroundColor=default;shadow=1;strokeColor=#B3B3B3;" parent="8yeXL6jUUZy5x9-lsI-Y-155" vertex="1">
          <mxGeometry width="300" height="120" as="geometry" />
        </mxCell>
        <mxCell id="8yeXL6jUUZy5x9-lsI-Y-157" value="&lt;b style=&quot;background-color: initial;&quot;&gt;&lt;i&gt;subnet-app02&lt;/i&gt;&lt;/b&gt;&lt;br&gt;&lt;div&gt;&lt;div&gt;10.2.0.0/24&lt;/div&gt;&lt;/div&gt;" style="sketch=0;points=[[0,0,0],[0.25,0,0],[0.5,0,0],[0.75,0,0],[1,0,0],[1,0.25,0],[1,0.5,0],[1,0.75,0],[1,1,0],[0.75,1,0],[0.5,1,0],[0.25,1,0],[0,1,0],[0,0.75,0],[0,0.5,0],[0,0.25,0]];rounded=1;absoluteArcSize=1;arcSize=2;html=1;strokeColor=none;gradientColor=none;shadow=0;dashed=0;fontSize=12;fontColor=#9E9E9E;align=left;verticalAlign=top;spacing=10;spacingTop=-4;whiteSpace=wrap;fillColor=#FFF2CC;fontFamily=Helvetica;labelBackgroundColor=none;spacingLeft=10;" parent="8yeXL6jUUZy5x9-lsI-Y-155" vertex="1">
          <mxGeometry x="25" y="7.058823529411765" width="249.99999999999997" height="105.88235294117646" as="geometry" />
        </mxCell>
        <mxCell id="8yeXL6jUUZy5x9-lsI-Y-158" value="workload-app02-vm&lt;div&gt;&lt;span style=&quot;font-style: normal;&quot;&gt;10.2.0.100&lt;/span&gt;&lt;/div&gt;" style="editableCssRules=.*;html=1;shape=image;verticalLabelPosition=bottom;labelBackgroundColor=none;verticalAlign=top;aspect=fixed;imageAspect=0;image=data:image/svg+xml,PHN2ZyB4bWxucz0iaHR0cDovL3d3dy53My5vcmcvMjAwMC9zdmciIHhtbG5zOnY9Imh0dHBzOi8vdmVjdGEuaW8vbmFubyIgd2lkdGg9IjIwIiBoZWlnaHQ9IjIwIiB2aWV3Qm94PSIwIDAgMjAgMjAiPiYjeGE7CTxzdHlsZSB0eXBlPSJ0ZXh0L2NzcyI+JiN4YTsJLnN0MHtmaWxsOiM0Mjg1ZjQ7fSYjeGE7CS5zdDF7ZmlsbDojNjY5ZGY2O30mI3hhOwkuc3Qye2ZpbGw6I2FlY2JmYTt9JiN4YTsJPC9zdHlsZT4mI3hhOwk8cGF0aCBjbGFzcz0ic3QyIiBkPSJNNyA3aDZ2Nkg3eiIvPiYjeGE7CTxwYXRoIGNsYXNzPSJzdDEiIGQ9Ik05IDBoMnY0SDl6TTUgMGgydjRINXptOCAwaDJ2NGgtMnoiLz4mI3hhOwk8cGF0aCBjbGFzcz0ic3QwIiBkPSJNOSAxNmgydjRIOXptLTQgMGgydjRINXptOCAwaDJ2NGgtMnptMy01VjloNHYyem0wIDR2LTJoNHYyem0wLThWNWg0djJ6Ii8+JiN4YTsJPHBhdGggY2xhc3M9InN0MSIgZD0iTTAgMTFWOWg0djJ6bTAgNHYtMmg0djJ6bTAtOFY1aDR2MnoiLz4mI3hhOwk8cGF0aCBjbGFzcz0ic3QyIiBkPSJNMyAzdjE0aDE0VjN6bTEyIDEySDVWNWgxMHoiLz4mI3hhOwk8cGF0aCBjbGFzcz0ic3QxIiBkPSJNMTAgMTBsLTMgM2g2eiIvPiYjeGE7CTxwYXRoIGNsYXNzPSJzdDAiIGQ9Ik0xMyA3bC0zIDMgMyAzeiIvPiYjeGE7PC9zdmc+;fontFamily=Helvetica;fontSize=11;fontColor=default;fontStyle=3" parent="8yeXL6jUUZy5x9-lsI-Y-155" vertex="1">
          <mxGeometry x="120" y="56.004000000000005" width="40" height="40" as="geometry" />
        </mxCell>
        <mxCell id="8yeXL6jUUZy5x9-lsI-Y-165" value="VPC peering" style="edgeStyle=orthogonalEdgeStyle;shape=connector;rounded=0;orthogonalLoop=1;jettySize=auto;html=1;exitX=0;exitY=0.75;exitDx=0;exitDy=0;shadow=1;strokeWidth=3;align=center;verticalAlign=top;fontFamily=Helvetica;fontSize=11;fontColor=default;labelBackgroundColor=none;endArrow=classic;flowAnimation=0;startArrow=classic;startFill=1;strokeColor=#808080;labelPosition=center;verticalLabelPosition=bottom;fontStyle=1" parent="8yeXL6jUUZy5x9-lsI-Y-155" source="8yeXL6jUUZy5x9-lsI-Y-156" edge="1">
          <mxGeometry relative="1" as="geometry">
            <mxPoint x="-50" y="89.57894736842104" as="targetPoint" />
          </mxGeometry>
        </mxCell>
        <mxCell id="8yeXL6jUUZy5x9-lsI-Y-138" value="" style="group" parent="1" vertex="1" connectable="0">
          <mxGeometry x="770" y="279" width="300" height="120" as="geometry" />
        </mxCell>
        <mxCell id="8yeXL6jUUZy5x9-lsI-Y-139" value="" style="rounded=0;whiteSpace=wrap;html=1;fontFamily=Helvetica;fontSize=11;fontColor=default;labelBackgroundColor=default;shadow=1;strokeColor=#B3B3B3;" parent="8yeXL6jUUZy5x9-lsI-Y-138" vertex="1">
          <mxGeometry width="300" height="120" as="geometry" />
        </mxCell>
        <mxCell id="8yeXL6jUUZy5x9-lsI-Y-140" value="&lt;b style=&quot;background-color: initial;&quot;&gt;&lt;i&gt;subnet-app01&lt;/i&gt;&lt;/b&gt;&lt;br&gt;&lt;div&gt;&lt;div&gt;10.1.0.0/24&lt;/div&gt;&lt;/div&gt;" style="sketch=0;points=[[0,0,0],[0.25,0,0],[0.5,0,0],[0.75,0,0],[1,0,0],[1,0.25,0],[1,0.5,0],[1,0.75,0],[1,1,0],[0.75,1,0],[0.5,1,0],[0.25,1,0],[0,1,0],[0,0.75,0],[0,0.5,0],[0,0.25,0]];rounded=1;absoluteArcSize=1;arcSize=2;html=1;strokeColor=none;gradientColor=none;shadow=0;dashed=0;fontSize=12;fontColor=#9E9E9E;align=left;verticalAlign=top;spacing=10;spacingTop=-4;whiteSpace=wrap;fillColor=#FFF2CC;fontFamily=Helvetica;labelBackgroundColor=none;spacingLeft=10;" parent="8yeXL6jUUZy5x9-lsI-Y-138" vertex="1">
          <mxGeometry x="25" y="7.058823529411765" width="249.99999999999997" height="105.88235294117646" as="geometry" />
        </mxCell>
        <mxCell id="8yeXL6jUUZy5x9-lsI-Y-147" value="workload-app01-vm&lt;div&gt;&lt;span style=&quot;font-style: normal;&quot;&gt;10.1.0.100&lt;/span&gt;&lt;/div&gt;" style="editableCssRules=.*;html=1;shape=image;verticalLabelPosition=bottom;labelBackgroundColor=none;verticalAlign=top;aspect=fixed;imageAspect=0;image=data:image/svg+xml,PHN2ZyB4bWxucz0iaHR0cDovL3d3dy53My5vcmcvMjAwMC9zdmciIHhtbG5zOnY9Imh0dHBzOi8vdmVjdGEuaW8vbmFubyIgd2lkdGg9IjIwIiBoZWlnaHQ9IjIwIiB2aWV3Qm94PSIwIDAgMjAgMjAiPiYjeGE7CTxzdHlsZSB0eXBlPSJ0ZXh0L2NzcyI+JiN4YTsJLnN0MHtmaWxsOiM0Mjg1ZjQ7fSYjeGE7CS5zdDF7ZmlsbDojNjY5ZGY2O30mI3hhOwkuc3Qye2ZpbGw6I2FlY2JmYTt9JiN4YTsJPC9zdHlsZT4mI3hhOwk8cGF0aCBjbGFzcz0ic3QyIiBkPSJNNyA3aDZ2Nkg3eiIvPiYjeGE7CTxwYXRoIGNsYXNzPSJzdDEiIGQ9Ik05IDBoMnY0SDl6TTUgMGgydjRINXptOCAwaDJ2NGgtMnoiLz4mI3hhOwk8cGF0aCBjbGFzcz0ic3QwIiBkPSJNOSAxNmgydjRIOXptLTQgMGgydjRINXptOCAwaDJ2NGgtMnptMy01VjloNHYyem0wIDR2LTJoNHYyem0wLThWNWg0djJ6Ii8+JiN4YTsJPHBhdGggY2xhc3M9InN0MSIgZD0iTTAgMTFWOWg0djJ6bTAgNHYtMmg0djJ6bTAtOFY1aDR2MnoiLz4mI3hhOwk8cGF0aCBjbGFzcz0ic3QyIiBkPSJNMyAzdjE0aDE0VjN6bTEyIDEySDVWNWgxMHoiLz4mI3hhOwk8cGF0aCBjbGFzcz0ic3QxIiBkPSJNMTAgMTBsLTMgM2g2eiIvPiYjeGE7CTxwYXRoIGNsYXNzPSJzdDAiIGQ9Ik0xMyA3bC0zIDMgMyAzeiIvPiYjeGE7PC9zdmc+;fontFamily=Helvetica;fontSize=11;fontColor=default;fontStyle=3" parent="8yeXL6jUUZy5x9-lsI-Y-138" vertex="1">
          <mxGeometry x="120" y="56.004000000000005" width="40" height="40" as="geometry" />
        </mxCell>
        <mxCell id="8yeXL6jUUZy5x9-lsI-Y-143" value="" style="editableCssRules=.*;html=1;shape=image;verticalLabelPosition=bottom;labelBackgroundColor=#ffffff;verticalAlign=top;aspect=fixed;imageAspect=0;image=data:image/svg+xml,PHN2ZyB4bWxucz0iaHR0cDovL3d3dy53My5vcmcvMjAwMC9zdmciIHhtbG5zOnY9Imh0dHBzOi8vdmVjdGEuaW8vbmFubyIgd2lkdGg9IjIwIiBoZWlnaHQ9IjIwIiB2aWV3Qm94PSIwIDAgMjAgMjAiPiYjeGE7CTxzdHlsZSB0eXBlPSJ0ZXh0L2NzcyI+JiN4YTsJLnN0MHtmaWxsOiM0Mjg1ZjQ7fSYjeGE7CS5zdDF7ZmlsbDojNjY5ZGY2O30mI3hhOwkuc3Qye2ZpbGw6I2FlY2JmYTt9JiN4YTsJPC9zdHlsZT4mI3hhOwk8cGF0aCBjbGFzcz0ic3QyIiBkPSJNMTQgMGg2djZoLTZ6Ii8+JiN4YTsJPHBhdGggY2xhc3M9InN0MSIgZD0iTTE3IDBoM3Y2aC0zeiIvPiYjeGE7CTxwYXRoIGNsYXNzPSJzdDIiIGQ9Ik0xNCAxNGg2djZoLTZ6Ii8+JiN4YTsJPHBhdGggY2xhc3M9InN0MSIgZD0iTTE3IDE0aDN2NmgtM3oiLz4mI3hhOwk8cGF0aCBjbGFzcz0ic3QyIiBkPSJNMCAwaDZ2NkgweiIvPiYjeGE7CTxwYXRoIGNsYXNzPSJzdDEiIGQ9Ik0zIDBoM3Y2SDN6Ii8+JiN4YTsJPHBhdGggY2xhc3M9InN0MiIgZD0iTTAgMTRoNnY2SDB6Ii8+JiN4YTsJPGcgY2xhc3M9InN0MSI+JiN4YTsJCTxwYXRoIGQ9Ik0zIDE0aDN2Nkgzek02IDJoOHYySDZ6Ii8+JiN4YTsJCTxwYXRoIGQ9Ik02IDE2aDh2Mkg2ek0xNiA2aDJ2OGgtMnpNMiA2aDJ2OEgyeiIvPiYjeGE7CTwvZz4mI3hhOwk8cGF0aCBjbGFzcz0ic3QwIiBkPSJNMiA2aDJ2Mkgyem0xNCAwaDJ2MmgtMnpNNiAyaDJ2Mkg2em0wIDE0aDJ2Mkg2eiIvPiYjeGE7PC9zdmc+;fontFamily=Helvetica;fontSize=11;fontColor=default;" parent="1" vertex="1">
          <mxGeometry x="770" y="255" width="20" height="20" as="geometry" />
        </mxCell>
        <mxCell id="8yeXL6jUUZy5x9-lsI-Y-144" value="&lt;b&gt;&lt;i&gt;vpc-workload-app01&lt;/i&gt;&lt;/b&gt;" style="text;html=1;align=center;verticalAlign=middle;whiteSpace=wrap;rounded=0;fontFamily=Helvetica;fontSize=11;fontColor=default;labelBackgroundColor=default;" parent="1" vertex="1">
          <mxGeometry x="790" y="250" width="110" height="30" as="geometry" />
        </mxCell>
        <mxCell id="8yeXL6jUUZy5x9-lsI-Y-145" value="VPC peering" style="edgeStyle=orthogonalEdgeStyle;shape=connector;rounded=0;orthogonalLoop=1;jettySize=auto;html=1;shadow=1;strokeColor=#808080;strokeWidth=3;align=center;verticalAlign=bottom;fontFamily=Helvetica;fontSize=11;fontColor=default;labelBackgroundColor=none;endArrow=classic;flowAnimation=0;fillColor=#1ba1e2;startArrow=classic;startFill=1;exitX=0;exitY=0.25;exitDx=0;exitDy=0;entryX=1;entryY=0.085;entryDx=0;entryDy=0;entryPerimeter=0;labelPosition=center;verticalLabelPosition=top;fontStyle=1" parent="1" source="8yeXL6jUUZy5x9-lsI-Y-139" target="8yeXL6jUUZy5x9-lsI-Y-92" edge="1">
          <mxGeometry relative="1" as="geometry">
            <mxPoint x="720" y="330" as="targetPoint" />
          </mxGeometry>
        </mxCell>
        <mxCell id="8yeXL6jUUZy5x9-lsI-Y-148" style="edgeStyle=orthogonalEdgeStyle;shape=connector;rounded=0;orthogonalLoop=1;jettySize=auto;html=1;entryX=0;entryY=0.5;entryDx=0;entryDy=0;shadow=1;strokeColor=#A50040;strokeWidth=2;align=center;verticalAlign=middle;fontFamily=Helvetica;fontSize=11;fontColor=default;labelBackgroundColor=default;endArrow=classic;flowAnimation=0;fillColor=#d80073;dashed=1;" parent="1" source="8yeXL6jUUZy5x9-lsI-Y-108" target="8yeXL6jUUZy5x9-lsI-Y-147" edge="1">
          <mxGeometry relative="1" as="geometry" />
        </mxCell>
        <mxCell id="8yeXL6jUUZy5x9-lsI-Y-161" style="edgeStyle=orthogonalEdgeStyle;shape=connector;rounded=0;orthogonalLoop=1;jettySize=auto;html=1;entryX=0;entryY=0.5;entryDx=0;entryDy=0;shadow=1;strokeColor=#A50040;strokeWidth=2;align=center;verticalAlign=middle;fontFamily=Helvetica;fontSize=11;fontColor=default;labelBackgroundColor=default;endArrow=classic;flowAnimation=0;fillColor=#d80073;dashed=1;" parent="1" source="8yeXL6jUUZy5x9-lsI-Y-109" target="8yeXL6jUUZy5x9-lsI-Y-147" edge="1">
          <mxGeometry relative="1" as="geometry">
            <Array as="points">
              <mxPoint x="740" y="530" />
              <mxPoint x="740" y="355" />
            </Array>
          </mxGeometry>
        </mxCell>
        <mxCell id="8yeXL6jUUZy5x9-lsI-Y-162" style="edgeStyle=orthogonalEdgeStyle;shape=connector;rounded=0;orthogonalLoop=1;jettySize=auto;html=1;exitX=0;exitY=0.75;exitDx=0;exitDy=0;entryX=1;entryY=0.5;entryDx=0;entryDy=0;shadow=1;strokeColor=#006EAF;strokeWidth=2;align=center;verticalAlign=middle;fontFamily=Helvetica;fontSize=11;fontColor=default;labelBackgroundColor=default;endArrow=classic;flowAnimation=0;fillColor=#1ba1e2;" parent="1" source="8yeXL6jUUZy5x9-lsI-Y-147" target="8yeXL6jUUZy5x9-lsI-Y-115" edge="1">
          <mxGeometry relative="1" as="geometry">
            <Array as="points">
              <mxPoint x="750" y="365" />
              <mxPoint x="750" y="450" />
            </Array>
          </mxGeometry>
        </mxCell>
        <mxCell id="8yeXL6jUUZy5x9-lsI-Y-164" style="edgeStyle=orthogonalEdgeStyle;shape=connector;rounded=0;orthogonalLoop=1;jettySize=auto;html=1;entryX=1;entryY=0.5;entryDx=0;entryDy=0;shadow=1;strokeColor=#006EAF;strokeWidth=2;align=center;verticalAlign=middle;fontFamily=Helvetica;fontSize=11;fontColor=default;labelBackgroundColor=default;endArrow=classic;flowAnimation=0;fillColor=#1ba1e2;" parent="1" source="8yeXL6jUUZy5x9-lsI-Y-158" target="8yeXL6jUUZy5x9-lsI-Y-115" edge="1">
          <mxGeometry relative="1" as="geometry">
            <Array as="points">
              <mxPoint x="750" y="585" />
              <mxPoint x="750" y="450" />
            </Array>
          </mxGeometry>
        </mxCell>
        <mxCell id="8yeXL6jUUZy5x9-lsI-Y-160" value="&lt;b&gt;&lt;i&gt;vpc-workload-app02&lt;/i&gt;&lt;/b&gt;" style="text;html=1;align=center;verticalAlign=middle;whiteSpace=wrap;rounded=0;fontFamily=Helvetica;fontSize=11;fontColor=default;labelBackgroundColor=default;" parent="1" vertex="1">
          <mxGeometry x="790" y="480" width="110.5" height="30" as="geometry" />
        </mxCell>
        <mxCell id="8yeXL6jUUZy5x9-lsI-Y-159" value="" style="editableCssRules=.*;html=1;shape=image;verticalLabelPosition=bottom;labelBackgroundColor=#ffffff;verticalAlign=top;aspect=fixed;imageAspect=0;image=data:image/svg+xml,PHN2ZyB4bWxucz0iaHR0cDovL3d3dy53My5vcmcvMjAwMC9zdmciIHhtbG5zOnY9Imh0dHBzOi8vdmVjdGEuaW8vbmFubyIgd2lkdGg9IjIwIiBoZWlnaHQ9IjIwIiB2aWV3Qm94PSIwIDAgMjAgMjAiPiYjeGE7CTxzdHlsZSB0eXBlPSJ0ZXh0L2NzcyI+JiN4YTsJLnN0MHtmaWxsOiM0Mjg1ZjQ7fSYjeGE7CS5zdDF7ZmlsbDojNjY5ZGY2O30mI3hhOwkuc3Qye2ZpbGw6I2FlY2JmYTt9JiN4YTsJPC9zdHlsZT4mI3hhOwk8cGF0aCBjbGFzcz0ic3QyIiBkPSJNMTQgMGg2djZoLTZ6Ii8+JiN4YTsJPHBhdGggY2xhc3M9InN0MSIgZD0iTTE3IDBoM3Y2aC0zeiIvPiYjeGE7CTxwYXRoIGNsYXNzPSJzdDIiIGQ9Ik0xNCAxNGg2djZoLTZ6Ii8+JiN4YTsJPHBhdGggY2xhc3M9InN0MSIgZD0iTTE3IDE0aDN2NmgtM3oiLz4mI3hhOwk8cGF0aCBjbGFzcz0ic3QyIiBkPSJNMCAwaDZ2NkgweiIvPiYjeGE7CTxwYXRoIGNsYXNzPSJzdDEiIGQ9Ik0zIDBoM3Y2SDN6Ii8+JiN4YTsJPHBhdGggY2xhc3M9InN0MiIgZD0iTTAgMTRoNnY2SDB6Ii8+JiN4YTsJPGcgY2xhc3M9InN0MSI+JiN4YTsJCTxwYXRoIGQ9Ik0zIDE0aDN2Nkgzek02IDJoOHYySDZ6Ii8+JiN4YTsJCTxwYXRoIGQ9Ik02IDE2aDh2Mkg2ek0xNiA2aDJ2OGgtMnpNMiA2aDJ2OEgyeiIvPiYjeGE7CTwvZz4mI3hhOwk8cGF0aCBjbGFzcz0ic3QwIiBkPSJNMiA2aDJ2Mkgyem0xNCAwaDJ2MmgtMnpNNiAyaDJ2Mkg2em0wIDE0aDJ2Mkg2eiIvPiYjeGE7PC9zdmc+;fontFamily=Helvetica;fontSize=11;fontColor=default;" parent="1" vertex="1">
          <mxGeometry x="770" y="485" width="20" height="20" as="geometry" />
        </mxCell>
      </root>
    </mxGraphModel>
  </diagram>
</mxfile>
